<svg width="78" height="78" viewBox="0 0 78 78" fill="none" xmlns="http://www.w3.org/2000/svg">
<g clip-path="url(#clip0)">
<path d="M65.7406 6.97553C67.0763 5.62741 68.8913 4.86281 70.7889 4.84883C72.6866 4.83485 74.5127 5.57263 75.868 6.90093C77.2234 8.22923 77.9978 10.04 78.0221 11.9376C78.0464 13.8352 77.3186 15.6652 75.9976 17.0278L37.7776 64.8077C37.121 65.5146 36.3287 66.082 35.448 66.4759C34.5673 66.8698 33.6162 67.0822 32.6515 67.1004C31.6869 67.1186 30.7285 66.9422 29.8335 66.5818C28.9386 66.2214 28.1254 65.6843 27.4426 65.0027L2.10238 39.6722C0.755791 38.3249 -0.000456913 36.4979 2.07112e-07 34.5931C0.000457327 32.6883 0.757582 30.8617 2.10482 29.5151C3.45205 28.1685 5.27903 27.4123 7.18385 27.4127C9.08867 27.4132 10.9153 28.1703 12.2619 29.5175L32.303 49.5635L65.5505 7.19978C65.6109 7.12269 65.676 7.04943 65.7455 6.9804L65.7406 6.97553Z" fill="#2CE175"/>
</g>
<defs>
<clipPath id="clip0">
<rect width="78" height="78" fill="white"/>
</clipPath>
</defs>
</svg>
