<svg width="29" height="21" viewBox="0 0 29 21" fill="none" xmlns="http://www.w3.org/2000/svg">
<path d="M14.5666 0.00575031C19.9539 0.00575031 24.3797 3.98898 25.1275 9.1626H28.3019L22.9604 15.2672L17.6189 9.1626H21.1596C20.8182 7.66867 19.9803 6.33463 18.7829 5.37833C17.5854 4.42203 16.0991 3.89997 14.5666 3.89741C12.3537 3.89741 10.4003 4.98097 9.1641 6.61394L6.5544 3.63797C7.55328 2.49574 8.78513 1.5806 10.1671 0.954095C11.5491 0.327587 13.0493 0.00422495 14.5666 0.00575031V0.00575031ZM13.9562 20.5171C8.58417 20.5171 4.1431 16.5339 3.39529 11.3602H0.220917L5.56241 5.25568C7.348 7.28544 9.11832 9.33047 10.9039 11.3602H7.36326C7.70468 12.8542 8.54253 14.1882 9.73998 15.1445C10.9374 16.1008 12.4237 16.6229 13.9562 16.6254C16.1691 16.6254 18.1226 15.5419 19.3587 13.9089L21.9684 16.8849C20.9705 18.0283 19.7389 18.9442 18.3566 19.5708C16.9744 20.1974 15.4738 20.5201 13.9562 20.5171V20.5171Z" fill="#E8E9EB"/>
</svg>
