<svg width="138" height="126" viewBox="0 0 138 126" fill="none" xmlns="http://www.w3.org/2000/svg">
<path d="M127.6 64.6819L137.404 75.3442L91.6751 125.177L67.3749 98.7104L77.179 88.0482L91.6751 103.777L127.6 64.6819ZM49.8675 98.7104L70.8763 121.396H0.846924V106.272C0.846924 89.5605 25.9175 76.0248 56.8705 76.0248L70.106 76.8566L49.8675 98.7104ZM56.8705 0.405945C64.2996 0.405945 71.4245 3.59273 76.6778 9.26524C81.931 14.9377 84.8822 22.6313 84.8822 30.6535C84.8822 38.6756 81.931 46.3692 76.6778 52.0417C71.4245 57.7142 64.2996 60.901 56.8705 60.901C49.4413 60.901 42.3164 57.7142 37.0631 52.0417C31.8099 46.3692 28.8587 38.6756 28.8587 30.6535C28.8587 22.6313 31.8099 14.9377 37.0631 9.26524C42.3164 3.59273 49.4413 0.405945 56.8705 0.405945Z" fill="#353A40"/>
</svg>
