<svg width="24" height="24" viewBox="0 0 24 24" fill="none" xmlns="http://www.w3.org/2000/svg">
<path d="M23.591 19.9363H6.87115C6.74518 19.9363 6.64212 20.0528 6.64212 20.1952V22.0076C6.64212 22.15 6.74518 22.2665 6.87115 22.2665H23.591C23.7169 22.2665 23.82 22.15 23.82 22.0076V20.1952C23.82 20.0528 23.7169 19.9363 23.591 19.9363ZM23.591 1.55348H6.87115C6.74518 1.55348 6.64212 1.66999 6.64212 1.81239V3.62478C6.64212 3.76718 6.74518 3.8837 6.87115 3.8837H23.591C23.7169 3.8837 23.82 3.76718 23.82 3.62478V1.81239C23.82 1.66999 23.7169 1.55348 23.591 1.55348ZM23.591 10.7449H6.87115C6.74518 10.7449 6.64212 10.8614 6.64212 11.0038V12.8162C6.64212 12.9586 6.74518 13.0751 6.87115 13.0751H23.591C23.7169 13.0751 23.82 12.9586 23.82 12.8162V11.0038C23.82 10.8614 23.7169 10.7449 23.591 10.7449ZM3.43558 18.3828H0.114519C0.0515337 18.3828 0 18.4411 0 18.5123V19.6127C0 19.6839 0.0515337 19.7421 0.114519 19.7421H2.18732V20.4056H1.16523C1.10225 20.4056 1.05071 20.4638 1.05071 20.535V21.6354C1.05071 21.7066 1.10225 21.7649 1.16523 21.7649H2.18732V22.4607H0.114519C0.0515337 22.4607 0 22.519 0 22.5902V23.6905C0 23.7617 0.0515337 23.82 0.114519 23.82H3.43558C3.49856 23.82 3.5501 23.7617 3.5501 23.6905V18.5123C3.5501 18.4411 3.49856 18.3828 3.43558 18.3828ZM0.114519 1.42402H1.20245V5.30772C1.20245 5.37892 1.25399 5.43717 1.31697 5.43717H2.46216C2.52515 5.43717 2.57668 5.37892 2.57668 5.30772V0.258913C2.57668 0.116511 2.47362 0 2.34764 0H0.114519C0.0515337 0 0 0.0582554 0 0.129457V1.29457C0 1.36577 0.0515337 1.42402 0.114519 1.42402ZM3.43558 9.19141H0.114519C0.0515337 9.19141 0 9.24967 0 9.32087V10.486C0 10.5572 0.0515337 10.6154 0.114519 10.6154H2.0728L0.0601226 13.1301C0.0221614 13.1783 0.000819268 13.2404 0 13.3049V14.4991C0 14.5703 0.0515337 14.6286 0.114519 14.6286H3.43558C3.49856 14.6286 3.5501 14.5703 3.5501 14.4991V13.334C3.5501 13.2628 3.49856 13.2046 3.43558 13.2046H1.4773L3.48997 10.6899C3.52793 10.6417 3.54928 10.5796 3.5501 10.5151V9.32087C3.5501 9.24967 3.49856 9.19141 3.43558 9.19141V9.19141Z" fill="#E8E9EB"/>
</svg>
