<svg width="24" height="30" viewBox="0 0 24 30" fill="none" xmlns="http://www.w3.org/2000/svg">
<path d="M20.8425 3.7275H15.88C15.88 1.67155 14.0997 0 11.91 0C9.7203 0 7.94 1.67155 7.94 3.7275H2.9775C1.33367 3.7275 0 4.97971 0 6.52312V27.0244C0 28.5678 1.33367 29.82 2.9775 29.82H20.8425C22.4863 29.82 23.82 28.5678 23.82 27.0244V6.52312C23.82 4.97971 22.4863 3.7275 20.8425 3.7275ZM5.955 24.6947C5.12998 24.6947 4.46625 24.0715 4.46625 23.2969C4.46625 22.5223 5.12998 21.8991 5.955 21.8991C6.78002 21.8991 7.44375 22.5223 7.44375 23.2969C7.44375 24.0715 6.78002 24.6947 5.955 24.6947ZM5.955 19.1034C5.12998 19.1034 4.46625 18.4802 4.46625 17.7056C4.46625 16.931 5.12998 16.3078 5.955 16.3078C6.78002 16.3078 7.44375 16.931 7.44375 17.7056C7.44375 18.4802 6.78002 19.1034 5.955 19.1034ZM5.955 13.5122C5.12998 13.5122 4.46625 12.889 4.46625 12.1144C4.46625 11.3398 5.12998 10.7166 5.955 10.7166C6.78002 10.7166 7.44375 11.3398 7.44375 12.1144C7.44375 12.889 6.78002 13.5122 5.955 13.5122ZM11.91 2.32969C12.735 2.32969 13.3988 2.95288 13.3988 3.7275C13.3988 4.50212 12.735 5.12531 11.91 5.12531C11.085 5.12531 10.4213 4.50212 10.4213 3.7275C10.4213 2.95288 11.085 2.32969 11.91 2.32969ZM19.85 23.7628C19.85 24.0191 19.6267 24.2287 19.3538 24.2287H10.4213C10.1483 24.2287 9.925 24.0191 9.925 23.7628V22.8309C9.925 22.5747 10.1483 22.365 10.4213 22.365H19.3538C19.6267 22.365 19.85 22.5747 19.85 22.8309V23.7628ZM19.85 18.1716C19.85 18.4278 19.6267 18.6375 19.3538 18.6375H10.4213C10.1483 18.6375 9.925 18.4278 9.925 18.1716V17.2397C9.925 16.9834 10.1483 16.7737 10.4213 16.7737H19.3538C19.6267 16.7737 19.85 16.9834 19.85 17.2397V18.1716ZM19.85 12.5803C19.85 12.8366 19.6267 13.0462 19.3538 13.0462H10.4213C10.1483 13.0462 9.925 12.8366 9.925 12.5803V11.6484C9.925 11.3922 10.1483 11.1825 10.4213 11.1825H19.3538C19.6267 11.1825 19.85 11.3922 19.85 11.6484V12.5803Z" fill="#E8E9EB"/>
</svg>

