<svg width="205" height="165" viewBox="0 0 205 165" fill="none" xmlns="http://www.w3.org/2000/svg">
<g clip-path="url(#clip0)">
<path d="M194.75 10.85H10.25C4.59008 10.85 0 15.4401 0 21.1V144.1C0 149.76 4.59008 154.35 10.25 154.35H194.75C200.41 154.35 205 149.76 205 144.1V21.1C205 15.4401 200.41 10.85 194.75 10.85ZM56.375 105.624V110.787C56.375 112.203 55.2283 113.35 53.8125 113.35H48.6875C47.2717 113.35 46.125 112.203 46.125 110.787V105.57C42.5087 105.384 38.9916 104.122 36.0768 101.934C34.8276 100.996 34.7635 99.1249 35.8942 98.0454L39.6579 94.4547C40.5452 93.6091 41.8648 93.5707 42.9027 94.2209C44.1423 94.9961 45.5484 95.4125 47.0091 95.4125H56.013C58.0951 95.4125 59.7927 93.5162 59.7927 91.1876C59.7927 89.2817 58.6364 87.6033 56.9836 87.11L42.5695 82.7858C36.6149 80.9984 32.4541 75.284 32.4541 68.8874C32.4541 61.0333 38.556 54.6527 46.1218 54.4509V49.2875C46.1218 47.8717 47.2685 46.725 48.6843 46.725H53.8093C55.2251 46.725 56.3718 47.8717 56.3718 49.2875V54.5054C59.9881 54.6911 63.5052 55.95 66.42 58.1409C67.6692 59.0794 67.7333 60.9501 66.6026 62.0295L62.8389 65.6202C61.9516 66.4658 60.632 66.5043 59.5941 65.854C58.3545 65.0757 56.9484 64.6625 55.4877 64.6625H46.4837C44.4017 64.6625 42.7041 66.5587 42.7041 68.8874C42.7041 70.7933 43.8604 72.4717 45.5132 72.965L59.9273 77.2892C65.8819 79.0765 70.0427 84.7909 70.0427 91.1876C70.0427 99.0448 63.9408 105.422 56.375 105.624V105.624ZM133.25 100.537C133.25 101.953 132.103 103.1 130.688 103.1H94.8125C93.3967 103.1 92.25 101.953 92.25 100.537V95.4125C92.25 93.9967 93.3967 92.85 94.8125 92.85H130.688C132.103 92.85 133.25 93.9967 133.25 95.4125V100.537ZM184.5 100.537C184.5 101.953 183.353 103.1 181.938 103.1H156.312C154.897 103.1 153.75 101.953 153.75 100.537V95.4125C153.75 93.9967 154.897 92.85 156.312 92.85H181.938C183.353 92.85 184.5 93.9967 184.5 95.4125V100.537ZM184.5 69.7875C184.5 71.2033 183.353 72.35 181.938 72.35H94.8125C93.3967 72.35 92.25 71.2033 92.25 69.7875V64.6625C92.25 63.2467 93.3967 62.1 94.8125 62.1H181.938C183.353 62.1 184.5 63.2467 184.5 64.6625V69.7875Z" fill="#2CE175"/>
</g>
<defs>
<clipPath id="clip0">
<rect width="205" height="164" fill="white" transform="translate(0 0.599976)"/>
</clipPath>
</defs>
</svg>
