<svg width="165" height="172" viewBox="0 0 165 172" fill="none" xmlns="http://www.w3.org/2000/svg">
<path d="M68.75 29.0218C61.4566 29.0218 54.4618 32.0345 49.3046 37.3972C44.1473 42.76 41.25 50.0334 41.25 57.6174C41.25 65.2014 44.1473 72.4748 49.3046 77.8375C54.4618 83.2003 61.4566 86.213 68.75 86.213C76.0435 86.213 83.0382 83.2003 88.1954 77.8375C93.3527 72.4748 96.25 65.2014 96.25 57.6174C96.25 50.0334 93.3527 42.76 88.1954 37.3972C83.0382 32.0345 76.0435 29.0218 68.75 29.0218ZM116.875 86.213C116.455 86.2049 116.045 86.3509 115.719 86.6254C115.392 86.9 115.168 87.2855 115.088 87.7143L113.781 97.1508C111.719 98.0802 109.725 99.224 107.938 100.511L99.4125 96.9363C98.6563 96.9363 97.7625 96.9363 97.2812 97.8657L90.4062 110.233C89.9938 111.02 90.1313 111.949 90.8188 112.521L98.1063 118.383C97.832 120.757 97.832 123.158 98.1063 125.532L90.8188 131.394C90.5098 131.67 90.3005 132.046 90.2255 132.462C90.1505 132.878 90.2143 133.309 90.4062 133.682L97.2812 146.049C97.6938 146.979 98.5875 146.979 99.4125 146.979L107.938 143.404C109.725 144.691 111.65 145.906 113.781 146.764L115.088 156.201C115.225 157.059 115.913 157.702 116.875 157.702H130.625C131.381 157.702 132.138 157.059 132.275 156.201L133.581 146.764C135.644 145.835 137.5 144.691 139.356 143.404L147.813 146.979C148.706 146.979 149.6 146.979 150.081 146.049L156.956 133.682C157.148 133.309 157.212 132.878 157.137 132.462C157.062 132.046 156.853 131.67 156.544 131.394L149.188 125.532C149.325 124.317 149.463 123.173 149.463 121.957C149.463 120.742 149.394 119.598 149.188 118.383L156.475 112.521C156.784 112.245 156.993 111.869 157.068 111.453C157.143 111.037 157.079 110.606 156.888 110.233L150.013 97.8657C149.6 96.9363 148.706 96.9363 147.813 96.9363L139.356 100.511C137.5 99.224 135.644 98.0087 133.513 97.1508L132.206 87.7143C132.163 87.307 131.979 86.9301 131.688 86.6539C131.397 86.3776 131.019 86.2209 130.625 86.213H116.875ZM68.75 100.511C38.3625 100.511 13.75 113.307 13.75 129.106V143.404H80.3C77.2317 136.704 75.6348 129.378 75.625 121.957C75.639 114.775 77.1396 107.68 80.025 101.154C76.3813 100.725 72.6 100.511 68.75 100.511ZM123.75 111.234C129.456 111.234 134.063 116.024 134.063 121.957C134.063 127.891 129.456 132.681 123.75 132.681C117.975 132.681 113.438 127.891 113.438 121.957C113.438 116.024 118.044 111.234 123.75 111.234Z" fill="#353A40"/>
</svg>
