<svg width="48" height="22" viewBox="0 0 48 22" fill="none" xmlns="http://www.w3.org/2000/svg">
<path d="M37.2 4.56946e-05C34.32 4.56946e-05 31.6 1.12005 29.66 3.06005L15.6 15.54C14.32 16.82 12.62 17.52 10.8 17.52C7.06 17.52 4 14.5 4 10.76C4 7.02005 7.06 4.00005 10.8 4.00005C12.62 4.00005 14.32 4.70005 15.68 6.06005L17.94 8.06005L21 5.38005L18.44 3.16005C17.4385 2.1547 16.2476 1.35781 14.9363 0.815427C13.6249 0.273039 12.2191 -0.00409368 10.8 4.56946e-05C4.84 4.56946e-05 0 4.84005 0 10.76C0 16.68 4.84 21.52 10.8 21.52C13.68 21.52 16.4 20.4 18.34 18.46L32.4 5.98005C33.68 4.70005 35.38 4.00005 37.2 4.00005C40.94 4.00005 44 7.02005 44 10.76C44 14.5 40.94 17.52 37.2 17.52C35.4 17.52 33.68 16.82 32.32 15.46L30 13.44L27 16.12L29.56 18.36C30.5642 19.3603 31.756 20.1526 33.0671 20.6914C34.3781 21.2303 35.7826 21.5051 37.2 21.5C43.16 21.5 48 16.68 48 10.76C48 4.76005 43.16 4.56946e-05 37.2 4.56946e-05Z" fill="#F3F800"/>
</svg>
